<mxfile host="Electron" modified="2023-07-21T00:16:07.722Z" agent="Mozilla/5.0 (Macintosh; Intel Mac OS X 10_15_7) AppleWebKit/537.36 (KHTML, like Gecko) draw.io/21.6.1 Chrome/112.0.5615.204 Electron/24.6.1 Safari/537.36" etag="FeorTWG8YAIqTzJYoQgA" version="21.6.1" type="device">
  <diagram id="C5RBs43oDa-KdzZeNtuy" name="Page-1">
    <mxGraphModel dx="636" dy="393" grid="1" gridSize="10" guides="1" tooltips="1" connect="1" arrows="1" fold="1" page="1" pageScale="1" pageWidth="827" pageHeight="1169" math="0" shadow="0">
      <root>
        <mxCell id="WIyWlLk6GJQsqaUBKTNV-0" />
        <mxCell id="WIyWlLk6GJQsqaUBKTNV-1" parent="WIyWlLk6GJQsqaUBKTNV-0" />
        <mxCell id="tIAyC1UcP9B2SZbmWJBC-0" value="Start" style="rounded=1;whiteSpace=wrap;html=1;" vertex="1" parent="WIyWlLk6GJQsqaUBKTNV-1">
          <mxGeometry x="280" y="20" width="120" height="60" as="geometry" />
        </mxCell>
        <mxCell id="tIAyC1UcP9B2SZbmWJBC-1" value="Get year" style="shape=parallelogram;perimeter=parallelogramPerimeter;whiteSpace=wrap;html=1;fixedSize=1;" vertex="1" parent="WIyWlLk6GJQsqaUBKTNV-1">
          <mxGeometry x="280" y="130" width="120" height="60" as="geometry" />
        </mxCell>
        <mxCell id="tIAyC1UcP9B2SZbmWJBC-2" value="Get make" style="shape=parallelogram;perimeter=parallelogramPerimeter;whiteSpace=wrap;html=1;fixedSize=1;" vertex="1" parent="WIyWlLk6GJQsqaUBKTNV-1">
          <mxGeometry x="280" y="230" width="120" height="60" as="geometry" />
        </mxCell>
        <mxCell id="tIAyC1UcP9B2SZbmWJBC-3" value="Speed = 0&amp;nbsp;" style="shape=parallelogram;perimeter=parallelogramPerimeter;whiteSpace=wrap;html=1;fixedSize=1;" vertex="1" parent="WIyWlLk6GJQsqaUBKTNV-1">
          <mxGeometry x="280" y="330" width="120" height="60" as="geometry" />
        </mxCell>
        <mxCell id="tIAyC1UcP9B2SZbmWJBC-4" value="Create car object with year make and speed attributes" style="shape=process;whiteSpace=wrap;html=1;backgroundOutline=1;" vertex="1" parent="WIyWlLk6GJQsqaUBKTNV-1">
          <mxGeometry x="280" y="430" width="120" height="60" as="geometry" />
        </mxCell>
        <mxCell id="tIAyC1UcP9B2SZbmWJBC-5" value="Accelerate and get_speed methods then display current speed" style="shape=process;whiteSpace=wrap;html=1;backgroundOutline=1;" vertex="1" parent="WIyWlLk6GJQsqaUBKTNV-1">
          <mxGeometry x="280" y="520" width="120" height="70" as="geometry" />
        </mxCell>
        <mxCell id="tIAyC1UcP9B2SZbmWJBC-10" value="Accelerate and get_speed methods then display current speed" style="shape=process;whiteSpace=wrap;html=1;backgroundOutline=1;" vertex="1" parent="WIyWlLk6GJQsqaUBKTNV-1">
          <mxGeometry x="280" y="610" width="120" height="70" as="geometry" />
        </mxCell>
        <mxCell id="tIAyC1UcP9B2SZbmWJBC-11" value="Accelerate and get_speed methods then display current speed" style="shape=process;whiteSpace=wrap;html=1;backgroundOutline=1;" vertex="1" parent="WIyWlLk6GJQsqaUBKTNV-1">
          <mxGeometry x="280" y="700" width="120" height="70" as="geometry" />
        </mxCell>
        <mxCell id="tIAyC1UcP9B2SZbmWJBC-12" value="Accelerate and get_speed methods then display current speed" style="shape=process;whiteSpace=wrap;html=1;backgroundOutline=1;" vertex="1" parent="WIyWlLk6GJQsqaUBKTNV-1">
          <mxGeometry x="280" y="790" width="120" height="70" as="geometry" />
        </mxCell>
        <mxCell id="tIAyC1UcP9B2SZbmWJBC-13" value="Accelerate and get_speed methods then display current speed" style="shape=process;whiteSpace=wrap;html=1;backgroundOutline=1;" vertex="1" parent="WIyWlLk6GJQsqaUBKTNV-1">
          <mxGeometry x="280" y="880" width="120" height="70" as="geometry" />
        </mxCell>
        <mxCell id="tIAyC1UcP9B2SZbmWJBC-14" value="Brake and get_speed methods then display current speed" style="shape=process;whiteSpace=wrap;html=1;backgroundOutline=1;" vertex="1" parent="WIyWlLk6GJQsqaUBKTNV-1">
          <mxGeometry x="280" y="1000" width="120" height="70" as="geometry" />
        </mxCell>
        <mxCell id="tIAyC1UcP9B2SZbmWJBC-15" value="Brake and get_speed methods then display current speed" style="shape=process;whiteSpace=wrap;html=1;backgroundOutline=1;" vertex="1" parent="WIyWlLk6GJQsqaUBKTNV-1">
          <mxGeometry x="280" y="1090" width="120" height="70" as="geometry" />
        </mxCell>
        <mxCell id="tIAyC1UcP9B2SZbmWJBC-16" value="Brake and get_speed methods then display current speed" style="shape=process;whiteSpace=wrap;html=1;backgroundOutline=1;" vertex="1" parent="WIyWlLk6GJQsqaUBKTNV-1">
          <mxGeometry x="280" y="1180" width="120" height="70" as="geometry" />
        </mxCell>
        <mxCell id="tIAyC1UcP9B2SZbmWJBC-17" value="Brake and get_speed methods then display current speed" style="shape=process;whiteSpace=wrap;html=1;backgroundOutline=1;" vertex="1" parent="WIyWlLk6GJQsqaUBKTNV-1">
          <mxGeometry x="280" y="1270" width="120" height="70" as="geometry" />
        </mxCell>
        <mxCell id="tIAyC1UcP9B2SZbmWJBC-18" value="Brake and get_speed methods then display current speed" style="shape=process;whiteSpace=wrap;html=1;backgroundOutline=1;" vertex="1" parent="WIyWlLk6GJQsqaUBKTNV-1">
          <mxGeometry x="280" y="1360" width="120" height="70" as="geometry" />
        </mxCell>
        <mxCell id="tIAyC1UcP9B2SZbmWJBC-19" value="get_make and get_model_year methods display year and make of vehicle&amp;nbsp;" style="shape=process;whiteSpace=wrap;html=1;backgroundOutline=1;" vertex="1" parent="WIyWlLk6GJQsqaUBKTNV-1">
          <mxGeometry x="280" y="1500" width="120" height="70" as="geometry" />
        </mxCell>
        <mxCell id="tIAyC1UcP9B2SZbmWJBC-20" value="End" style="rounded=1;whiteSpace=wrap;html=1;" vertex="1" parent="WIyWlLk6GJQsqaUBKTNV-1">
          <mxGeometry x="280" y="1640" width="120" height="60" as="geometry" />
        </mxCell>
        <mxCell id="tIAyC1UcP9B2SZbmWJBC-21" value="" style="endArrow=classic;html=1;rounded=0;entryX=0.5;entryY=0;entryDx=0;entryDy=0;" edge="1" parent="WIyWlLk6GJQsqaUBKTNV-1" source="tIAyC1UcP9B2SZbmWJBC-19" target="tIAyC1UcP9B2SZbmWJBC-20">
          <mxGeometry width="50" height="50" relative="1" as="geometry">
            <mxPoint x="160" y="1630" as="sourcePoint" />
            <mxPoint x="210" y="1580" as="targetPoint" />
          </mxGeometry>
        </mxCell>
        <mxCell id="tIAyC1UcP9B2SZbmWJBC-22" value="" style="endArrow=classic;html=1;rounded=0;" edge="1" parent="WIyWlLk6GJQsqaUBKTNV-1" source="tIAyC1UcP9B2SZbmWJBC-18" target="tIAyC1UcP9B2SZbmWJBC-19">
          <mxGeometry width="50" height="50" relative="1" as="geometry">
            <mxPoint x="370" y="1470" as="sourcePoint" />
            <mxPoint x="420" y="1420" as="targetPoint" />
          </mxGeometry>
        </mxCell>
        <mxCell id="tIAyC1UcP9B2SZbmWJBC-23" value="" style="endArrow=classic;html=1;rounded=0;" edge="1" parent="WIyWlLk6GJQsqaUBKTNV-1" source="tIAyC1UcP9B2SZbmWJBC-17" target="tIAyC1UcP9B2SZbmWJBC-18">
          <mxGeometry width="50" height="50" relative="1" as="geometry">
            <mxPoint x="370" y="1380" as="sourcePoint" />
            <mxPoint x="420" y="1330" as="targetPoint" />
          </mxGeometry>
        </mxCell>
        <mxCell id="tIAyC1UcP9B2SZbmWJBC-24" value="" style="endArrow=classic;html=1;rounded=0;" edge="1" parent="WIyWlLk6GJQsqaUBKTNV-1" source="tIAyC1UcP9B2SZbmWJBC-16" target="tIAyC1UcP9B2SZbmWJBC-17">
          <mxGeometry width="50" height="50" relative="1" as="geometry">
            <mxPoint x="370" y="1280" as="sourcePoint" />
            <mxPoint x="420" y="1230" as="targetPoint" />
          </mxGeometry>
        </mxCell>
        <mxCell id="tIAyC1UcP9B2SZbmWJBC-25" value="" style="endArrow=classic;html=1;rounded=0;" edge="1" parent="WIyWlLk6GJQsqaUBKTNV-1" source="tIAyC1UcP9B2SZbmWJBC-15" target="tIAyC1UcP9B2SZbmWJBC-16">
          <mxGeometry width="50" height="50" relative="1" as="geometry">
            <mxPoint x="150" y="1240" as="sourcePoint" />
            <mxPoint x="200" y="1190" as="targetPoint" />
          </mxGeometry>
        </mxCell>
        <mxCell id="tIAyC1UcP9B2SZbmWJBC-26" value="" style="endArrow=classic;html=1;rounded=0;" edge="1" parent="WIyWlLk6GJQsqaUBKTNV-1" source="tIAyC1UcP9B2SZbmWJBC-14" target="tIAyC1UcP9B2SZbmWJBC-15">
          <mxGeometry width="50" height="50" relative="1" as="geometry">
            <mxPoint x="160" y="1140" as="sourcePoint" />
            <mxPoint x="210" y="1090" as="targetPoint" />
          </mxGeometry>
        </mxCell>
        <mxCell id="tIAyC1UcP9B2SZbmWJBC-27" value="" style="endArrow=classic;html=1;rounded=0;" edge="1" parent="WIyWlLk6GJQsqaUBKTNV-1" source="tIAyC1UcP9B2SZbmWJBC-13" target="tIAyC1UcP9B2SZbmWJBC-14">
          <mxGeometry width="50" height="50" relative="1" as="geometry">
            <mxPoint x="160" y="1020" as="sourcePoint" />
            <mxPoint x="210" y="970" as="targetPoint" />
          </mxGeometry>
        </mxCell>
        <mxCell id="tIAyC1UcP9B2SZbmWJBC-28" value="" style="endArrow=classic;html=1;rounded=0;" edge="1" parent="WIyWlLk6GJQsqaUBKTNV-1" source="tIAyC1UcP9B2SZbmWJBC-12" target="tIAyC1UcP9B2SZbmWJBC-13">
          <mxGeometry width="50" height="50" relative="1" as="geometry">
            <mxPoint x="150" y="940" as="sourcePoint" />
            <mxPoint x="200" y="890" as="targetPoint" />
          </mxGeometry>
        </mxCell>
        <mxCell id="tIAyC1UcP9B2SZbmWJBC-29" value="" style="endArrow=classic;html=1;rounded=0;" edge="1" parent="WIyWlLk6GJQsqaUBKTNV-1" source="tIAyC1UcP9B2SZbmWJBC-11" target="tIAyC1UcP9B2SZbmWJBC-12">
          <mxGeometry width="50" height="50" relative="1" as="geometry">
            <mxPoint x="170" y="780" as="sourcePoint" />
            <mxPoint x="220" y="730" as="targetPoint" />
          </mxGeometry>
        </mxCell>
        <mxCell id="tIAyC1UcP9B2SZbmWJBC-30" value="" style="endArrow=classic;html=1;rounded=0;" edge="1" parent="WIyWlLk6GJQsqaUBKTNV-1" source="tIAyC1UcP9B2SZbmWJBC-10" target="tIAyC1UcP9B2SZbmWJBC-11">
          <mxGeometry width="50" height="50" relative="1" as="geometry">
            <mxPoint x="160" y="690" as="sourcePoint" />
            <mxPoint x="210" y="640" as="targetPoint" />
          </mxGeometry>
        </mxCell>
        <mxCell id="tIAyC1UcP9B2SZbmWJBC-31" value="" style="endArrow=classic;html=1;rounded=0;" edge="1" parent="WIyWlLk6GJQsqaUBKTNV-1" source="tIAyC1UcP9B2SZbmWJBC-5" target="tIAyC1UcP9B2SZbmWJBC-10">
          <mxGeometry width="50" height="50" relative="1" as="geometry">
            <mxPoint x="180" y="600" as="sourcePoint" />
            <mxPoint x="230" y="550" as="targetPoint" />
          </mxGeometry>
        </mxCell>
        <mxCell id="tIAyC1UcP9B2SZbmWJBC-32" value="" style="endArrow=classic;html=1;rounded=0;" edge="1" parent="WIyWlLk6GJQsqaUBKTNV-1" source="tIAyC1UcP9B2SZbmWJBC-4" target="tIAyC1UcP9B2SZbmWJBC-5">
          <mxGeometry width="50" height="50" relative="1" as="geometry">
            <mxPoint x="150" y="480" as="sourcePoint" />
            <mxPoint x="200" y="430" as="targetPoint" />
          </mxGeometry>
        </mxCell>
        <mxCell id="tIAyC1UcP9B2SZbmWJBC-33" value="" style="endArrow=classic;html=1;rounded=0;" edge="1" parent="WIyWlLk6GJQsqaUBKTNV-1" source="tIAyC1UcP9B2SZbmWJBC-3" target="tIAyC1UcP9B2SZbmWJBC-4">
          <mxGeometry width="50" height="50" relative="1" as="geometry">
            <mxPoint x="170" y="410" as="sourcePoint" />
            <mxPoint x="220" y="360" as="targetPoint" />
          </mxGeometry>
        </mxCell>
        <mxCell id="tIAyC1UcP9B2SZbmWJBC-34" value="" style="endArrow=classic;html=1;rounded=0;" edge="1" parent="WIyWlLk6GJQsqaUBKTNV-1" source="tIAyC1UcP9B2SZbmWJBC-2" target="tIAyC1UcP9B2SZbmWJBC-3">
          <mxGeometry width="50" height="50" relative="1" as="geometry">
            <mxPoint x="150" y="340" as="sourcePoint" />
            <mxPoint x="200" y="290" as="targetPoint" />
          </mxGeometry>
        </mxCell>
        <mxCell id="tIAyC1UcP9B2SZbmWJBC-35" value="" style="endArrow=classic;html=1;rounded=0;" edge="1" parent="WIyWlLk6GJQsqaUBKTNV-1" source="tIAyC1UcP9B2SZbmWJBC-1" target="tIAyC1UcP9B2SZbmWJBC-2">
          <mxGeometry width="50" height="50" relative="1" as="geometry">
            <mxPoint x="160" y="200" as="sourcePoint" />
            <mxPoint x="210" y="150" as="targetPoint" />
          </mxGeometry>
        </mxCell>
        <mxCell id="tIAyC1UcP9B2SZbmWJBC-36" value="" style="endArrow=classic;html=1;rounded=0;" edge="1" parent="WIyWlLk6GJQsqaUBKTNV-1" source="tIAyC1UcP9B2SZbmWJBC-0" target="tIAyC1UcP9B2SZbmWJBC-1">
          <mxGeometry width="50" height="50" relative="1" as="geometry">
            <mxPoint x="190" y="90" as="sourcePoint" />
            <mxPoint x="240" y="40" as="targetPoint" />
          </mxGeometry>
        </mxCell>
      </root>
    </mxGraphModel>
  </diagram>
</mxfile>
